<svg width="235" height="260" viewBox="0 0 235 260" fill="none" xmlns="http://www.w3.org/2000/svg">
<path d="M57.1999 50.2667C57.0666 50.9333 57.1999 54.6667 57.3332 58.8L57.5999 66.2667L52.1332 67.0667C44.6666 68 37.7332 72.6667 34.6666 78.8C32.1332 83.6 31.9999 86.2667 32.2666 123.6L32.6666 163.333L45.9999 164L59.1999 164.667L60.3999 169.6C61.0666 172.267 63.5999 176.8 66.1332 179.733C80.3999 196.533 104.667 193.6 115.067 174C117.733 168.933 118 166.267 118.667 126C119.333 84.9333 119.467 83.2 122.267 78.6667C123.867 76 127.733 72.4 130.933 70.6667C136 67.8667 138.667 67.3333 153.467 66.9333L170.267 66.4L170.133 74.1333C170 80.2667 170.4 82 172 82C173.6 82 174.133 79.8667 174.4 72.2667L174.8 62.6667H155.733C139.867 62.6667 135.733 63.2 131.333 65.2C123.867 68.8 119.2 73.3333 116 80.1333C113.6 85.6 113.333 88.9333 113.333 126.4C113.333 169.733 113.2 170.8 106.133 178.4C99.3332 186 86.3999 188.133 76.9333 183.467C71.4666 180.8 66.1332 173.867 64.6666 167.733L63.7332 164.133L78.2666 163.733L92.6666 163.333L93.0666 106.267L93.3333 49.3333H75.3333C65.4666 49.3333 57.1999 49.7333 57.1999 50.2667ZM87.7333 55.2C88.1333 55.6 88.3999 58.2667 88.3999 60.9333V66L74.9333 66.4L61.3332 66.8V60.9333C61.3332 57.7333 61.5999 54.8 61.8666 54.5333C62.6666 53.7333 86.7999 54.4 87.7333 55.2ZM88.1333 114.667C88.1333 155.333 87.9999 158 85.7333 158.267C84.3999 158.4 78.9333 158.8 73.7333 158.933L63.9999 159.467V151.6C63.9999 144.533 64.3999 143.333 67.9999 140C72.9333 135.333 73.1999 130.4 68.6666 126C62.5332 119.733 52.9332 122.933 51.1999 131.6C50.3999 135.333 50.9332 136.533 54.6666 140C58.5332 143.6 58.9332 144.8 59.0666 151.6L59.1999 159.067L48.6666 158.8C42.7999 158.667 37.8666 158.267 37.5999 158C37.3332 157.867 37.1999 140.667 37.3332 119.867C37.3332 89.0667 37.7332 81.4667 39.3332 79.0667C43.4666 72.8 51.7332 70.8 73.0666 71.0667L88.1333 71.3333V114.667ZM65.0666 128.267C69.4666 132.667 63.9999 140.267 58.6666 137.333C53.9999 134.8 55.9999 126.667 61.3332 126.667C62.5332 126.667 64.1332 127.333 65.0666 128.267Z" fill="black"/>
<path d="M169.466 93.8667C167.2 96.5333 169.2 100.267 172.533 99.7333C175.733 99.3333 177.066 94.8 174.4 93.2C172 91.6 171.2 91.7333 169.466 93.8667Z" fill="black"/>
<path d="M158.933 111.867C156.133 113.6 157.6 118 161.066 118.4C164.666 118.933 166.4 115.467 164 112.667C162.133 110.4 161.333 110.267 158.933 111.867Z" fill="black"/>
<path d="M180 112.667C177.6 115.467 179.333 118.933 182.933 118.4C186.4 118 187.867 113.6 185.067 111.867C182.667 110.267 181.867 110.4 180 112.667Z" fill="black"/>
<path d="M147.066 132.8C146.666 133.867 147.333 135.867 148.533 137.067C150.533 139.067 150.8 139.067 152.8 137.067C155.6 134.267 154.266 130.667 150.666 130.667C149.2 130.667 147.6 131.6 147.066 132.8Z" fill="black"/>
<path d="M168.8 132.933C168.133 134.4 168.666 135.867 170 136.933C173.066 139.067 176.266 137.6 175.733 134.133C175.2 130.533 170 129.6 168.8 132.933Z" fill="black"/>
<path d="M190.666 133.867C190.666 137.733 193.866 139.2 196.533 136.533C199.199 133.867 197.733 130.667 193.866 130.667C191.333 130.667 190.666 131.333 190.666 133.867Z" fill="black"/>
<path d="M136.933 150.267C135.199 151.867 135.999 155.733 138.266 156.533C139.466 157.067 141.333 156.667 142.266 155.6C143.333 154.667 143.733 152.8 143.199 151.6C142.399 149.333 138.533 148.533 136.933 150.267Z" fill="black"/>
<path d="M157.733 151.467C157.333 152.533 158 154.533 159.2 155.733C161.2 157.733 161.467 157.733 163.467 155.733C166.267 152.933 164.933 149.333 161.333 149.333C159.867 149.333 158.267 150.267 157.733 151.467Z" fill="black"/>
<path d="M179.467 151.467C178.933 152.8 179.333 154.667 180.4 155.6C182.933 158.133 186.933 156.267 186.4 152.8C185.867 149.2 180.667 148.267 179.467 151.467Z" fill="black"/>
<path d="M200.8 151.467C200.266 152.8 200.666 154.667 201.733 155.6C204.266 158.133 208.266 156.267 207.733 152.8C207.2 149.2 202 148.267 200.8 151.467Z" fill="black"/>
<path d="M196.933 172.133C189.333 173.867 181.733 178.267 175.866 184.133L170.533 189.467L165.866 186C159.866 181.333 151.733 178.667 143.733 178.667C135.066 178.667 134.266 181.067 141.066 187.2C146 191.733 150.666 200 152.666 208.4L153.6 212.133L93.1997 212C59.8663 212 31.8663 211.867 31.0663 212C30.133 212 29.333 212.933 29.333 214C29.333 215.733 40.2663 216 120 216C199.733 216 210.666 215.733 210.666 214C210.666 212.4 208.533 212 200 212C191.2 212 189.333 211.6 189.333 209.867C189.333 206.667 196.933 189.2 202 180.667C208.133 170.667 207.466 169.6 196.933 172.133ZM198.4 176.933C198.266 177.6 195.466 183.2 192.266 189.467C189.066 195.733 186.133 203.333 185.733 206.4C184.8 213.2 183.333 213.467 181.333 207.333C180.533 204.933 178.4 200.667 176.666 198.133L173.6 193.467L177.733 188.8C182.933 182.933 200.133 173.067 198.4 176.933ZM155.066 185.333C162.933 188.267 166.933 192 173.2 201.867C179.2 211.6 178.933 212 167.466 212H157.733L156.933 206.8C156.133 200.667 151.333 190.267 147.733 187.067C145.066 184.667 144.533 182.667 146.666 182.667C147.333 182.667 151.066 183.867 155.066 185.333Z" fill="black"/>
</svg>
