<svg width="700" height="300" viewBox="0 0 700 300" fill="none" xmlns="http://www.w3.org/2000/svg">
<path d="M108.2 70.2667C108.067 70.9333 108.2 74.6667 108.333 78.8L108.6 86.2667L103.133 87.0667C95.6666 88 88.7332 92.6667 85.6666 98.8C83.1332 103.6 82.9999 106.267 83.2666 143.6L83.6666 183.333L96.9999 184L110.2 184.667L111.4 189.6C112.067 192.267 114.6 196.8 117.133 199.733C131.4 216.533 155.667 213.6 166.067 194C168.733 188.933 169 186.267 169.667 146C170.333 104.933 170.467 103.2 173.267 98.6667C174.867 96 178.733 92.4 181.933 90.6667C187 87.8667 189.667 87.3333 204.467 86.9333L221.267 86.4L221.133 94.1333C221 100.267 221.4 102 223 102C224.6 102 225.133 99.8667 225.4 92.2667L225.8 82.6667H206.733C190.867 82.6667 186.733 83.2 182.333 85.2C174.867 88.8 170.2 93.3333 167 100.133C164.6 105.6 164.333 108.933 164.333 146.4C164.333 189.733 164.2 190.8 157.133 198.4C150.333 206 137.4 208.133 127.933 203.467C122.467 200.8 117.133 193.867 115.667 187.733L114.733 184.133L129.267 183.733L143.667 183.333L144.067 126.267L144.333 69.3333H126.333C116.467 69.3333 108.2 69.7333 108.2 70.2667ZM138.733 75.2C139.133 75.6 139.4 78.2667 139.4 80.9333V86L125.933 86.4L112.333 86.8V80.9333C112.333 77.7333 112.6 74.8 112.867 74.5333C113.667 73.7333 137.8 74.4 138.733 75.2ZM139.133 134.667C139.133 175.333 139 178 136.733 178.267C135.4 178.4 129.933 178.8 124.733 178.933L115 179.467V171.6C115 164.533 115.4 163.333 119 160C123.933 155.333 124.2 150.4 119.667 146C113.533 139.733 103.933 142.933 102.2 151.6C101.4 155.333 101.933 156.533 105.667 160C109.533 163.6 109.933 164.8 110.067 171.6L110.2 179.067L99.6666 178.8C93.7999 178.667 88.8666 178.267 88.5999 178C88.3332 177.867 88.1999 160.667 88.3332 139.867C88.3332 109.067 88.7332 101.467 90.3332 99.0667C94.4666 92.8 102.733 90.8 124.067 91.0667L139.133 91.3333V134.667ZM116.067 148.267C120.467 152.667 115 160.267 109.667 157.333C105 154.8 107 146.667 112.333 146.667C113.533 146.667 115.133 147.333 116.067 148.267Z" fill="black"/>
<path d="M220.466 113.867C218.2 116.533 220.2 120.267 223.533 119.733C226.733 119.333 228.066 114.8 225.4 113.2C223 111.6 222.2 111.733 220.466 113.867Z" fill="black"/>
<path d="M209.933 131.867C207.133 133.6 208.6 138 212.066 138.4C215.666 138.933 217.4 135.467 215 132.667C213.133 130.4 212.333 130.267 209.933 131.867Z" fill="black"/>
<path d="M231 132.667C228.6 135.467 230.333 138.933 233.933 138.4C237.4 138 238.867 133.6 236.067 131.867C233.667 130.267 232.867 130.4 231 132.667Z" fill="black"/>
<path d="M198.066 152.8C197.666 153.867 198.333 155.867 199.533 157.067C201.533 159.067 201.8 159.067 203.8 157.067C206.6 154.267 205.266 150.667 201.666 150.667C200.2 150.667 198.6 151.6 198.066 152.8Z" fill="black"/>
<path d="M219.8 152.933C219.133 154.4 219.666 155.867 221 156.933C224.066 159.067 227.266 157.6 226.733 154.133C226.2 150.533 221 149.6 219.8 152.933Z" fill="black"/>
<path d="M241.666 153.867C241.666 157.733 244.866 159.2 247.533 156.533C250.199 153.867 248.733 150.667 244.866 150.667C242.333 150.667 241.666 151.333 241.666 153.867Z" fill="black"/>
<path d="M187.933 170.267C186.199 171.867 186.999 175.733 189.266 176.533C190.466 177.067 192.333 176.667 193.266 175.6C194.333 174.667 194.733 172.8 194.199 171.6C193.399 169.333 189.533 168.533 187.933 170.267Z" fill="black"/>
<path d="M208.733 171.467C208.333 172.533 209 174.533 210.2 175.733C212.2 177.733 212.467 177.733 214.467 175.733C217.267 172.933 215.933 169.333 212.333 169.333C210.867 169.333 209.267 170.267 208.733 171.467Z" fill="black"/>
<path d="M230.467 171.467C229.933 172.8 230.333 174.667 231.4 175.6C233.933 178.133 237.933 176.267 237.4 172.8C236.867 169.2 231.667 168.267 230.467 171.467Z" fill="black"/>
<path d="M251.8 171.467C251.266 172.8 251.666 174.667 252.733 175.6C255.266 178.133 259.266 176.267 258.733 172.8C258.2 169.2 253 168.267 251.8 171.467Z" fill="black"/>
<path d="M247.933 192.133C240.333 193.867 232.733 198.267 226.866 204.133L221.533 209.467L216.866 206C210.866 201.333 202.733 198.667 194.733 198.667C186.066 198.667 185.266 201.067 192.066 207.2C197 211.733 201.666 220 203.666 228.4L204.6 232.133L144.2 232C110.866 232 82.8663 231.867 82.0663 232C81.133 232 80.333 232.933 80.333 234C80.333 235.733 91.2663 236 171 236C250.733 236 261.666 235.733 261.666 234C261.666 232.4 259.533 232 251 232C242.2 232 240.333 231.6 240.333 229.867C240.333 226.667 247.933 209.2 253 200.667C259.133 190.667 258.466 189.6 247.933 192.133ZM249.4 196.933C249.266 197.6 246.466 203.2 243.266 209.467C240.066 215.733 237.133 223.333 236.733 226.4C235.8 233.2 234.333 233.467 232.333 227.333C231.533 224.933 229.4 220.667 227.666 218.133L224.6 213.467L228.733 208.8C233.933 202.933 251.133 193.067 249.4 196.933ZM206.066 205.333C213.933 208.267 217.933 212 224.2 221.867C230.2 231.6 229.933 232 218.466 232H208.733L207.933 226.8C207.133 220.667 202.333 210.267 198.733 207.067C196.066 204.667 195.533 202.667 197.666 202.667C198.333 202.667 202.066 203.867 206.066 205.333Z" fill="black"/>
<path d="M287.3 141L303.94 94.85H311.48L328.12 141H322.01L317.395 127.87H298.025L293.41 141H287.3ZM299.91 122.41H315.51L307.71 99.725L299.91 122.41ZM334.446 141V94.85H340.036V138.4L337.241 135.54H363.111V141H334.446ZM368.914 141V94.85H376.714L391.469 134.89L406.159 94.85H413.959V141H408.369V105.25L395.174 141H387.699L374.504 105.25V141H368.914ZM424.646 141V94.85H453.636V100.31H430.236V115.195H452.856V120.525H430.236V135.54H454.156V141H424.646ZM463.176 141V94.85H480.661C483.911 94.85 486.706 95.4133 489.046 96.54C491.386 97.6667 493.185 99.2917 494.441 101.415C495.741 103.495 496.391 105.965 496.391 108.825C496.391 110.905 495.893 112.768 494.896 114.415C493.943 116.018 492.708 117.297 491.191 118.25C489.675 119.203 488.093 119.723 486.446 119.81L486.056 119.225C488.873 119.225 491.083 119.875 492.686 121.175C494.333 122.475 495.286 124.555 495.546 127.415L496.846 141H491.191L490.021 128C489.848 126.093 489.155 124.685 487.941 123.775C486.771 122.865 484.843 122.41 482.156 122.41H468.766V141H463.176ZM468.766 116.95H481.376C484.193 116.95 486.425 116.235 488.071 114.805C489.718 113.375 490.541 111.338 490.541 108.695C490.541 106.008 489.696 103.95 488.006 102.52C486.316 101.047 483.868 100.31 480.661 100.31H468.766V116.95ZM506.848 141V94.85H512.438V141H506.848ZM519.053 141L535.693 94.85H543.233L559.873 141H553.763L549.148 127.87H529.778L525.163 141H519.053ZM531.663 122.41H547.263L539.463 99.725L531.663 122.41ZM291.98 226V179.85H308.555C313.712 179.85 317.72 181.085 320.58 183.555C323.44 186.025 324.87 189.448 324.87 193.825C324.87 196.772 324.22 199.328 322.92 201.495C321.62 203.618 319.757 205.243 317.33 206.37C314.903 207.497 311.978 208.06 308.555 208.06H297.57V226H291.98ZM297.57 202.6H308.555C312.022 202.6 314.622 201.863 316.355 200.39C318.132 198.917 319.02 196.728 319.02 193.825C319.02 191.008 318.132 188.885 316.355 187.455C314.622 186.025 312.022 185.31 308.555 185.31H297.57V202.6ZM332.986 226V179.85H361.976V185.31H338.576V200.195H361.196V205.525H338.576V220.54H362.496V226H332.986ZM388.011 227.04C384.458 227.04 381.359 226.368 378.716 225.025C376.073 223.682 373.971 221.84 372.411 219.5C370.894 217.117 370.006 214.365 369.746 211.245L375.596 210.855C375.899 213.152 376.571 215.102 377.611 216.705C378.651 218.308 380.038 219.522 381.771 220.345C383.548 221.168 385.671 221.58 388.141 221.58C390.308 221.58 392.149 221.298 393.666 220.735C395.183 220.172 396.331 219.348 397.111 218.265C397.934 217.182 398.346 215.86 398.346 214.3C398.346 212.87 397.999 211.613 397.306 210.53C396.656 209.403 395.378 208.385 393.471 207.475C391.608 206.522 388.834 205.59 385.151 204.68C381.598 203.77 378.759 202.773 376.636 201.69C374.556 200.607 373.039 199.285 372.086 197.725C371.176 196.165 370.721 194.237 370.721 191.94C370.721 189.34 371.328 187.065 372.541 185.115C373.798 183.122 375.574 181.583 377.871 180.5C380.168 179.373 382.898 178.81 386.061 178.81C389.441 178.81 392.344 179.46 394.771 180.76C397.198 182.017 399.126 183.75 400.556 185.96C401.986 188.17 402.874 190.683 403.221 193.5L397.371 193.89C397.111 192.027 396.504 190.38 395.551 188.95C394.641 187.477 393.384 186.328 391.781 185.505C390.178 184.682 388.228 184.27 385.931 184.27C383.071 184.27 380.796 184.963 379.106 186.35C377.416 187.693 376.571 189.47 376.571 191.68C376.571 193.11 376.896 194.302 377.546 195.255C378.239 196.165 379.453 196.988 381.186 197.725C382.919 198.418 385.411 199.177 388.661 200C392.518 200.953 395.573 202.102 397.826 203.445C400.123 204.745 401.748 206.262 402.701 207.995C403.698 209.728 404.196 211.7 404.196 213.91C404.196 216.597 403.503 218.937 402.116 220.93C400.729 222.88 398.823 224.397 396.396 225.48C393.969 226.52 391.174 227.04 388.011 227.04ZM420.291 226V185.31H405.926V179.85H440.246V185.31H425.881V226H420.291ZM445.022 226V179.85H450.612V226H445.022ZM479.333 227.04C475.216 227.04 471.598 226.087 468.478 224.18C465.358 222.23 462.931 219.457 461.198 215.86C459.465 212.263 458.598 207.973 458.598 202.99C458.598 198.007 459.465 193.717 461.198 190.12C462.931 186.48 465.358 183.685 468.478 181.735C471.598 179.785 475.216 178.81 479.333 178.81C484.923 178.81 489.256 180.218 492.333 183.035C495.41 185.852 497.425 189.687 498.378 194.54L492.463 194.93C491.813 191.637 490.426 189.037 488.303 187.13C486.18 185.223 483.19 184.27 479.333 184.27C476.386 184.27 473.786 185.028 471.533 186.545C469.323 188.018 467.59 190.163 466.333 192.98C465.076 195.753 464.448 199.09 464.448 202.99C464.448 206.89 465.076 210.227 466.333 213C467.59 215.773 469.323 217.897 471.533 219.37C473.786 220.843 476.386 221.58 479.333 221.58C483.363 221.58 486.483 220.54 488.693 218.46C490.903 216.337 492.29 213.477 492.853 209.88L498.768 210.27C498.205 213.607 497.1 216.532 495.453 219.045C493.806 221.558 491.618 223.53 488.888 224.96C486.201 226.347 483.016 227.04 479.333 227.04ZM507.483 226V179.85H513.073V226H507.483ZM523.733 226V179.85H538.033C545.14 179.85 550.6 181.865 554.413 185.895C558.27 189.882 560.198 195.58 560.198 202.99C560.198 210.357 558.313 216.033 554.543 220.02C550.773 224.007 545.4 226 538.423 226H523.733ZM529.323 220.54H538.033C543.45 220.54 547.523 219.088 550.253 216.185C552.983 213.238 554.348 208.84 554.348 202.99C554.348 197.053 552.983 192.633 550.253 189.73C547.523 186.783 543.45 185.31 538.033 185.31H529.323V220.54ZM568.23 226V179.85H597.22V185.31H573.82V200.195H596.44V205.525H573.82V220.54H597.74V226H568.23ZM623.255 227.04C619.702 227.04 616.603 226.368 613.96 225.025C611.317 223.682 609.215 221.84 607.655 219.5C606.138 217.117 605.25 214.365 604.99 211.245L610.84 210.855C611.143 213.152 611.815 215.102 612.855 216.705C613.895 218.308 615.282 219.522 617.015 220.345C618.792 221.168 620.915 221.58 623.385 221.58C625.552 221.58 627.393 221.298 628.91 220.735C630.427 220.172 631.575 219.348 632.355 218.265C633.178 217.182 633.59 215.86 633.59 214.3C633.59 212.87 633.243 211.613 632.55 210.53C631.9 209.403 630.622 208.385 628.715 207.475C626.852 206.522 624.078 205.59 620.395 204.68C616.842 203.77 614.003 202.773 611.88 201.69C609.8 200.607 608.283 199.285 607.33 197.725C606.42 196.165 605.965 194.237 605.965 191.94C605.965 189.34 606.572 187.065 607.785 185.115C609.042 183.122 610.818 181.583 613.115 180.5C615.412 179.373 618.142 178.81 621.305 178.81C624.685 178.81 627.588 179.46 630.015 180.76C632.442 182.017 634.37 183.75 635.8 185.96C637.23 188.17 638.118 190.683 638.465 193.5L632.615 193.89C632.355 192.027 631.748 190.38 630.795 188.95C629.885 187.477 628.628 186.328 627.025 185.505C625.422 184.682 623.472 184.27 621.175 184.27C618.315 184.27 616.04 184.963 614.35 186.35C612.66 187.693 611.815 189.47 611.815 191.68C611.815 193.11 612.14 194.302 612.79 195.255C613.483 196.165 614.697 196.988 616.43 197.725C618.163 198.418 620.655 199.177 623.905 200C627.762 200.953 630.817 202.102 633.07 203.445C635.367 204.745 636.992 206.262 637.945 207.995C638.942 209.728 639.44 211.7 639.44 213.91C639.44 216.597 638.747 218.937 637.36 220.93C635.973 222.88 634.067 224.397 631.64 225.48C629.213 226.52 626.418 227.04 623.255 227.04Z" fill="black"/>
</svg>
